<svg width="20" height="20" viewBox="0 0 20 20" fill="none" xmlns="http://www.w3.org/2000/svg">
<path d="M5.82754 10C5.82754 12.3009 7.69921 14.1725 10 14.1725C12.3009 14.1725 14.1725 12.3009 14.1725 10C14.1725 7.69919 12.3009 5.82752 10 5.82752C7.69921 5.82752 5.82754 7.69919 5.82754 10ZM10 7.49419C11.3817 7.49419 12.5059 8.61835 12.5059 10C12.5059 11.3817 11.3817 12.5059 10 12.5059C8.61837 12.5059 7.49421 11.3817 7.49421 10C7.49421 8.61835 8.61837 7.49419 10 7.49419ZM9.16504 15.8334H10.8317V18.3334H9.16504V15.8334ZM9.16504 1.66669H10.8317V4.16669H9.16504V1.66669ZM1.66504 9.16669H4.16504V10.8334H1.66504V9.16669ZM15.8317 9.16669H18.3317V10.8334H15.8317V9.16669ZM3.51587 15.3025L5.28254 13.5342L6.46171 14.7125L4.69504 16.4809L3.51587 15.3025ZM13.5334 5.28669L15.3017 3.51835L16.48 4.69669L14.7117 6.46502L13.5334 5.28669ZM5.28504 6.46585L3.51671 4.69752L4.69587 3.51919L6.46254 5.28752L5.28504 6.46585ZM16.48 15.3034L15.3017 16.4817L13.5334 14.7134L14.7117 13.535L16.48 15.3034Z" fill="#2E2E2E"/>
</svg>
